<svg width="18" height="18" viewBox="0 0 18 18" fill="none" xmlns="http://www.w3.org/2000/svg">
<path d="M14.8333 5.87508C14.65 5.87508 14.4708 5.79175 14.3542 5.65008C13.9292 5.14175 12.5417 3.39592 12.5417 2.33342C12.5417 1.07091 13.5708 0.041748 14.8333 0.041748C16.0958 0.041748 17.125 1.07091 17.125 2.33342C17.125 3.39592 15.7375 5.14175 15.3125 5.65008C15.1958 5.79175 15.0167 5.87508 14.8333 5.87508ZM14.8333 1.29175C14.2583 1.29175 13.7917 1.75841 13.7917 2.33342C13.7917 2.65842 14.2708 3.47508 14.8333 4.23758C15.3958 3.47508 15.875 2.65842 15.875 2.33342C15.875 1.75841 15.4083 1.29175 14.8333 1.29175Z" fill="#5C79DF"/>
<path d="M3.16705 12.125C4.42954 12.125 5.45871 13.1542 5.45871 14.4167C5.45871 15.4792 4.07121 17.225 3.64621 17.7333C3.52538 17.875 3.35038 17.9583 3.16705 17.9583C2.98371 17.9583 2.80455 17.875 2.68788 17.7333C2.26288 17.225 0.875384 15.4792 0.875384 14.4167C0.875384 13.1542 1.90455 12.125 3.16705 12.125ZM3.16705 16.3208C3.72955 15.5583 4.20871 14.7417 4.20871 14.4167C4.20871 13.8417 3.74205 13.375 3.16705 13.375C2.59205 13.375 2.12538 13.8417 2.12538 14.4167C2.12538 14.7417 2.60455 15.5583 3.16705 16.3208Z" fill="#5C79DF"/>
<path d="M5.66667 16.7085H14C15.0333 16.7085 15.875 15.8668 15.875 14.8335C15.875 13.8002 15.0333 12.9585 14 12.9585H9C7.275 12.9585 5.875 11.5585 5.875 9.8335C5.875 8.1085 7.275 6.7085 9 6.7085H13.5833C13.9292 6.7085 14.2083 6.98766 14.2083 7.3335C14.2083 7.67933 13.9292 7.9585 13.5833 7.9585H9C7.96667 7.9585 7.125 8.80016 7.125 9.8335C7.125 10.8668 7.96667 11.7085 9 11.7085H14C15.725 11.7085 17.125 13.1085 17.125 14.8335C17.125 16.5585 15.725 17.9585 14 17.9585H5.66667C5.32083 17.9585 5.04167 17.6793 5.04167 17.3335C5.04167 16.9877 5.32083 16.7085 5.66667 16.7085Z" fill="#5C79DF"/>
</svg>
