<svg width="23" height="28" viewBox="0 0 23 28" fill="none" xmlns="http://www.w3.org/2000/svg">
<path d="M7.62548 27.1046C3.45212 27.0813 0 18.8467 0 14.6529C0 7.8025 5.31658 6.30276 7.36555 6.30276C8.28894 6.30276 9.27492 6.65326 10.1446 6.96343C10.7527 7.17978 11.3817 7.40313 11.7315 7.40313C11.9409 7.40313 12.4343 7.21314 12.8699 7.04643C13.7989 6.68894 14.9549 6.24463 16.3011 6.24463C16.3035 6.24463 16.3068 6.24463 16.3091 6.24463C17.3143 6.24463 20.3622 6.45786 22.1945 9.1177L22.6237 9.74115L22.006 10.1917C21.1235 10.8353 19.5134 12.0094 19.5134 14.335C19.5134 17.0895 21.3369 18.1488 22.213 18.6582C22.5997 18.8831 23 19.115 23 19.6221C23 19.9533 20.2659 27.0635 16.2955 27.0635C15.324 27.0635 14.6372 26.7812 14.0315 26.5323C13.4186 26.2803 12.8899 26.0632 12.0162 26.0632C11.5734 26.0632 11.0134 26.2655 10.4205 26.4804C9.61032 26.7726 8.69329 27.1046 7.65276 27.1046H7.62548Z" fill="#202128"/>
<path d="M16.7219 0C16.8253 3.60383 14.1589 6.104 11.4957 5.9472C11.0568 3.07122 14.1586 0 16.7219 0Z" fill="#202128"/>
</svg>
