<svg width="32" height="32" viewBox="0 0 32 32" fill="none" xmlns="http://www.w3.org/2000/svg">
<path d="M16.0005 31.889C24.7757 31.889 31.8894 24.7753 31.8894 16.0001C31.8894 7.2249 24.7757 0.111206 16.0005 0.111206C7.22527 0.111206 0.111572 7.2249 0.111572 16.0001C0.111572 24.7753 7.22527 31.889 16.0005 31.889Z" fill="#42A5F5"/>
<path fill-rule="evenodd" clip-rule="evenodd" d="M23.9681 2.25391C28.703 5.00629 31.8887 10.1341 31.8887 16C31.8887 24.7692 24.7691 31.8888 15.9998 31.8888C10.134 31.8888 5.00617 28.7031 2.25378 23.9682C4.59595 25.3303 16.6289 27.6371 22.6306 20.1426C28.6322 12.6481 25.3302 4.59607 23.9681 2.25391Z" fill="#1E88E5"/>
<path fill-rule="evenodd" clip-rule="evenodd" d="M13.2121 9.04672C13.1067 9.06694 12.4054 9.36305 12.0399 9.06188C11.8608 8.91455 11.7489 8.7015 11.7539 8.46966C11.8096 5.93827 12.9463 3.22561 15.4561 0.356939C15.594 0.200217 15.7933 0.109939 16.0021 0.110661H16.1024C24.8247 0.166272 31.8888 7.44699 31.8888 15.9996C31.8888 17.2584 31.7422 18.484 31.4648 19.6583C31.4013 19.9263 31.1983 20.1964 30.9224 20.1964C30.2226 20.1964 30.0038 19.6699 29.9778 19.5702C28.3593 13.3634 22.7108 8.77733 15.9999 8.77733C15.0458 8.77733 14.1142 8.86977 13.2121 9.04672Z" fill="#FFEE58"/>
<path fill-rule="evenodd" clip-rule="evenodd" d="M24.0773 2.31746L24.0816 2.31963C25.9305 3.50335 27.7578 4.85102 29.572 7.73918C32.0059 11.6132 32.268 16.2484 31.4649 19.6587C31.4021 19.9267 31.1912 20.1354 30.9225 20.1968C30.2949 20.3405 30.0039 19.6703 29.9779 19.5706C29.2853 16.9129 27.8531 14.5526 25.9154 12.7218C26.0439 11.9079 26.1111 11.073 26.1111 10.2222C26.1111 7.31885 25.3304 4.59607 23.9683 2.25391L24.0773 2.31746Z" fill="#FDD835"/>
<path fill-rule="evenodd" clip-rule="evenodd" d="M5.42869 6.0264C5.62585 5.0059 4.43563 5.10123 4.17057 5.39662C1.64713 8.20895 0.110962 11.927 0.110962 16.0003C0.110962 18.8935 0.885907 21.6076 2.24007 23.9455C2.27474 24.0054 2.39824 24.2271 2.72468 24.2921C7.11941 25.1711 10.3615 24.4669 12.7166 22.7177C12.9817 22.5212 12.7672 21.5123 12.1721 21.1591C7.95935 18.6581 5.16652 14.0301 5.16652 8.77807C5.16652 7.83701 5.2568 6.9169 5.42869 6.0264Z" fill="#FFEE58"/>
<path fill-rule="evenodd" clip-rule="evenodd" d="M22.515 18.3067C22.515 18.3067 22.8067 16.8868 23.7196 17.6524C25.8639 19.4507 27.2441 22.3316 27.546 26.566C27.5611 26.7726 27.486 26.9755 27.3416 27.1236C24.457 30.0637 20.44 31.8888 15.9998 31.8888C13.0575 31.8888 10.3 31.0878 7.93546 29.6903C6.80085 29.0201 7.56424 28.1997 8.39913 28.282C8.39913 28.282 8.68802 28.2827 8.80863 28.2827C15.2191 28.2827 20.6292 24.0924 22.515 18.3067Z" fill="#FBC02D"/>
<path fill-rule="evenodd" clip-rule="evenodd" d="M16.0005 0.111206C7.23124 0.111206 0.111572 7.23087 0.111572 16.0001C0.111572 24.7693 7.23124 31.889 16.0005 31.889C24.7697 31.889 31.8894 24.7693 31.8894 16.0001C31.8894 7.23087 24.7697 0.111206 16.0005 0.111206ZM23.6047 19.552C21.5666 24.8271 16.7927 28.7459 11.0272 29.5642C12.5779 30.1333 14.2527 30.4445 16.0005 30.4445C19.9192 30.4445 23.4762 28.8802 26.0805 26.3423C25.8191 23.3343 24.9705 21.1026 23.6047 19.552ZM16.5443 16.7281C15.6733 19.6206 14.2014 21.8328 12.0456 23.1826C10.0941 24.4039 7.56491 24.9275 4.36113 24.5512C5.45529 26.0375 6.82752 27.3065 8.39979 28.2822H8.41857C8.53774 28.2808 8.65763 28.2779 8.77824 28.2779C15.1208 28.2779 20.5136 24.1814 22.4535 18.4918C20.8899 17.3304 18.8829 16.7866 16.5443 16.7281ZM29.9899 19.6083C29.9856 19.596 29.982 19.5838 29.9784 19.5708C28.3599 13.364 22.7114 8.77787 16.0005 8.77787C15.045 8.77787 14.1104 8.87104 13.2062 9.04798C13.321 11.2811 14.4397 13.3503 16.3045 15.2786C19.4866 15.3118 22.1343 16.1583 24.0706 17.9609C25.7346 19.5108 26.888 21.7815 27.3646 24.913C28.5787 23.3675 29.4851 21.5684 29.9899 19.6083ZM3.72774 8.38426C2.35118 10.5957 1.55602 13.2058 1.55602 16.0001C1.55602 18.5127 2.19879 20.8765 3.32979 22.9363C6.55091 23.5228 9.07507 23.2137 10.9955 22.1267C6.62024 19.2956 3.72268 14.3722 3.72268 8.77787C3.72268 8.64643 3.72413 8.51498 3.72774 8.38426ZM14.4166 1.6416C10.8655 2.02943 7.69924 3.70715 5.39752 6.19448C5.24657 7.03298 5.16713 7.89604 5.16713 8.77787C5.16713 14.0299 7.97657 18.6304 12.1727 21.1589C12.2045 21.1784 12.237 21.1979 12.2695 21.2167C13.6301 20.0113 14.5777 18.3025 15.1923 16.2067C13.0646 13.9786 11.8499 11.5635 11.7581 8.98443C11.6758 6.68271 12.4876 4.2286 14.4166 1.6416ZM16.3284 1.55926C14.5387 3.66887 13.5514 5.66654 13.2762 7.56671C14.1617 7.4136 15.0717 7.33343 16.0005 7.33343C22.3972 7.33343 27.9157 11.1215 30.4334 16.5743C30.4413 16.3836 30.4449 16.1922 30.4449 16.0001C30.4449 8.13726 24.1486 1.73332 16.3284 1.55926Z" fill="#0D47A1"/>
</svg>
