<svg width="14" height="16" viewBox="0 0 14 16" fill="none" xmlns="http://www.w3.org/2000/svg">
<path d="M11.7847 1.98194C10.5066 0.703785 8.80719 -0.00012207 6.99962 -0.00012207C5.19206 -0.00012207 3.49262 0.703785 2.21449 1.98194C0.936329 3.26013 0.232422 4.95951 0.232422 6.76705C0.232422 10.4237 3.68987 13.4651 5.54734 15.099C5.80546 15.3261 6.02837 15.5222 6.20597 15.6881C6.42847 15.8959 6.71406 15.9998 6.99959 15.9998C7.28519 15.9998 7.57072 15.8959 7.79325 15.6881C7.97084 15.5222 8.19375 15.3261 8.45188 15.099C10.3093 13.4651 13.7668 10.4237 13.7668 6.76705C13.7668 4.95951 13.0629 3.26013 11.7847 1.98194ZM7.83281 14.3953C7.56903 14.6274 7.34125 14.8278 7.15344 15.0032C7.06715 15.0837 6.93203 15.0838 6.84572 15.0032C6.65793 14.8277 6.43012 14.6273 6.16634 14.3953C4.42009 12.8592 1.16961 9.99987 1.16961 6.76708C1.16961 3.55245 3.7849 0.937161 6.99956 0.937161C10.2142 0.937161 12.8295 3.55245 12.8295 6.76708C12.8295 9.99987 9.57907 12.8592 7.83281 14.3953Z" fill="#5C5C69"/>
<path d="M7.00005 3.52914C5.35564 3.52914 4.01782 4.86693 4.01782 6.51134C4.01782 8.15576 5.35564 9.49354 7.00005 9.49354C8.64446 9.49354 9.98224 8.15576 9.98224 6.51134C9.98224 4.86693 8.64446 3.52914 7.00005 3.52914ZM7.00005 8.55626C5.87245 8.55626 4.95507 7.63888 4.95507 6.51131C4.95507 5.38375 5.87245 4.46637 7.00005 4.46637C8.12764 4.46637 9.04499 5.38375 9.04499 6.51131C9.04499 7.63888 8.12764 8.55626 7.00005 8.55626Z" fill="#5C5C69"/>
</svg>
