<svg width="19" height="24" viewBox="0 0 19 24" fill="none" xmlns="http://www.w3.org/2000/svg">
<path d="M14.7389 23.5652C15.0181 23.5652 15.2859 23.4543 15.4833 23.2569C15.6807 23.0595 15.7916 22.7918 15.7916 22.5126V7.92324C16.7349 7.66808 17.5535 7.07894 18.095 6.26541C18.6365 5.45189 18.8641 4.46936 18.7354 3.50061C18.6067 2.53185 18.1305 1.64282 17.3953 0.998901C16.6602 0.354978 15.7162 0 14.7389 0C13.7617 0 12.8177 0.354978 12.0826 0.998901C11.3474 1.64282 10.8712 2.53185 10.7425 3.50061C10.6138 4.46936 10.8414 5.45189 11.3829 6.26541C11.9244 7.07894 12.743 7.66808 13.6863 7.92324V22.5126C13.6863 22.7918 13.7972 23.0595 13.9946 23.2569C14.192 23.4543 14.4598 23.5652 14.7389 23.5652ZM12.8127 4.06012C12.8106 3.67869 12.9218 3.30523 13.1322 2.98707C13.3426 2.66891 13.6427 2.42038 13.9945 2.27296C14.3463 2.12555 14.7339 2.0859 15.1083 2.15903C15.4826 2.23217 15.8268 2.41479 16.0973 2.68377C16.3677 2.95274 16.5522 3.29595 16.6274 3.6699C16.7026 4.04385 16.6651 4.4317 16.5196 4.7843C16.3741 5.1369 16.1272 5.43837 15.8102 5.65051C15.4932 5.86264 15.1204 5.97588 14.7389 5.97589C14.2299 5.9759 13.7415 5.77439 13.3806 5.41542C13.0196 5.05644 12.8154 4.56918 12.8127 4.06012Z" fill="white"/>
<path d="M2.9718 15.6712V22.5132C2.9718 22.7924 3.0827 23.0602 3.28011 23.2576C3.47751 23.455 3.74525 23.5659 4.02442 23.5659C4.3036 23.5659 4.57134 23.455 4.76874 23.2576C4.96615 23.0602 5.07705 22.7924 5.07705 22.5132L5.07705 15.6712C5.92965 15.4426 6.68301 14.9391 7.22031 14.2387C7.75762 13.5383 8.04885 12.6803 8.04885 11.7975C8.04885 10.9148 7.75762 10.0568 7.22031 9.3564C6.68301 8.65605 5.92965 8.15252 5.07705 7.9239V1.08186C5.07705 0.802685 4.96615 0.534946 4.76874 0.337541C4.57134 0.140136 4.3036 0.0292358 4.02442 0.0292358C3.74525 0.0292358 3.47751 0.140136 3.28011 0.337541C3.0827 0.534946 2.9718 0.802685 2.9718 1.08186V7.9239C2.1192 8.15252 1.36584 8.65605 0.828535 9.3564C0.29123 10.0568 0 10.9148 0 11.7975C0 12.6803 0.29123 13.5383 0.828535 14.2387C1.36584 14.9391 2.1192 15.4426 2.9718 15.6712ZM4.02442 9.87125C4.40585 9.86917 4.77931 9.98037 5.09747 10.1908C5.41563 10.4012 5.66417 10.7013 5.81158 11.0531C5.95899 11.4049 5.99864 11.7925 5.92551 12.1669C5.85238 12.5412 5.66975 12.8854 5.40078 13.1559C5.1318 13.4263 4.78859 13.6108 4.41464 13.686C4.04069 13.7612 3.65284 13.7237 3.30024 13.5782C2.94764 13.4327 2.64617 13.1858 2.43404 12.8688C2.2219 12.5518 2.10866 12.179 2.10865 11.7975C2.10864 11.2885 2.31015 10.8001 2.66912 10.4392C3.0281 10.0782 3.51536 9.87403 4.02442 9.87125Z" fill="white"/>
</svg>
