<?xml version="1.0" encoding="utf-8"?>
<!-- Generator: Adobe Illustrator 24.0.1, SVG Export Plug-In . SVG Version: 6.00 Build 0)  -->
<svg version="1.1" id="Слой_1" xmlns="http://www.w3.org/2000/svg" xmlns:xlink="http://www.w3.org/1999/xlink" x="0px" y="0px"
	 viewBox="0 0 32 32" style="enable-background:new 0 0 32 32;" xml:space="preserve">
<style type="text/css">
	.st0{clip-path:url(#SVGID_2_);}
	.st1{fill:#EFEFEF;}
	.st2{fill:#576DE2;}
	.st3{fill:#0D47A1;}
</style>
<g>
	<defs>
		<rect id="SVGID_1_" width="32" height="32"/>
	</defs>
	<clipPath id="SVGID_2_">
		<use xlink:href="#SVGID_1_"  style="overflow:visible;"/>
	</clipPath>
	<g class="st0">
		<path class="st1" d="M31.5,16.5c-0.1,2.9-1,5.8-2.6,8.2h-6.5l-2,6.2h0c-2.8,0.8-5.8,0.8-8.6,0h0l-2-6.2H3.2
			c-1.6-2.4-2.6-5.2-2.6-8.2l5.3-3.8l-2-6.2c1.8-2.3,4.2-4.1,6.9-5L16,5.3l5.3-3.8c2.7,1,5.1,2.7,6.9,5l-2,6.2L31.5,16.5z"/>
		<path class="st2" d="M10.4,14.2l2.1,6.6h6.9l2.1-6.6L16,10.1L10.4,14.2z"/>
		<path class="st2" d="M21.3,1.5c-3.4-1.2-7.1-1.2-10.5,0L16,5.3L21.3,1.5z"/>
		<path class="st2" d="M3.8,6.5C1.7,9.2,0.5,12.6,0.5,16c0,0.2,0,0.3,0,0.5l5.3-3.8L3.8,6.5z"/>
		<path class="st2" d="M3.2,24.7c2,3,5,5.2,8.5,6.2l-2-6.2H3.2z"/>
		<path class="st2" d="M20.3,30.9c3.5-1,6.5-3.2,8.5-6.2h-6.5L20.3,30.9z"/>
		<path class="st2" d="M26.2,12.7l5.3,3.8c0-0.2,0-0.3,0-0.5c0-3.4-1.1-6.8-3.3-9.5L26.2,12.7z"/>
		<path class="st3" d="M32,16c0-0.4,0-0.9-0.1-1.3c0-0.6-0.1-1.1-0.2-1.7c-0.5-2.5-1.5-4.8-3.1-6.8C26.8,3.8,24.3,2,21.4,1
			C18.8,0,16-0.2,13.2,0.2c-0.9,0.2-1.8,0.4-2.7,0.7C4.2,3.2,0,9.3,0,16c0,0.2,0,0.4,0,0.5v0c0.1,3,1,5.9,2.7,8.4
			c2.1,3.1,5.2,5.4,8.8,6.4l0,0c2.9,0.8,5.9,0.8,8.8,0c0,0,0,0,0,0c0.9-0.3,1.8-0.6,2.6-1c2.5-1.2,4.7-3.1,6.2-5.4
			c1.7-2.5,2.6-5.4,2.7-8.4C32,16.4,32,16.2,32,16z M27.4,25.6c-0.2,0.2-0.4,0.4-0.5,0.6c-0.1,0.1-0.2,0.2-0.3,0.3
			c-0.2,0.2-0.4,0.4-0.6,0.6c-0.1,0.1-0.2,0.2-0.3,0.3c-0.3,0.2-0.6,0.5-0.9,0.7c0,0,0,0-0.1,0c-0.3,0.2-0.6,0.4-1,0.7
			c-0.1,0.1-0.2,0.1-0.3,0.2c-0.2,0.1-0.5,0.3-0.7,0.4c-0.1,0.1-0.3,0.1-0.4,0.2c-0.2,0.1-0.5,0.2-0.7,0.3c-0.1,0-0.2,0.1-0.4,0.1
			c-0.1,0-0.1,0-0.2,0.1l1.6-4.8h5.1c0,0-0.1,0.1-0.1,0.1C27.6,25.4,27.5,25.5,27.4,25.6z M28.5,24.1h-5.9L20,20.6l2-6l4.1-1.3
			l4.8,3.5C30.8,19.4,30,21.9,28.5,24.1z M10.4,29.8c-0.3-0.1-0.5-0.2-0.7-0.3c-0.1-0.1-0.3-0.1-0.4-0.2c-0.2-0.1-0.5-0.3-0.7-0.4
			c-0.1-0.1-0.2-0.1-0.3-0.2c-0.3-0.2-0.7-0.4-1-0.7c0,0,0,0,0,0c-0.3-0.2-0.6-0.5-0.9-0.7c-0.1-0.1-0.2-0.2-0.3-0.3
			c-0.2-0.2-0.4-0.4-0.6-0.6c-0.1-0.1-0.2-0.2-0.3-0.3c-0.2-0.2-0.4-0.4-0.5-0.6c-0.1-0.1-0.2-0.2-0.2-0.3c0,0-0.1-0.1-0.1-0.1h5.1
			l1.6,4.8c-0.1,0-0.1,0-0.2-0.1C10.6,29.9,10.5,29.9,10.4,29.8z M9.4,24.1H3.5c-1.4-2.2-2.3-4.7-2.4-7.4l4.8-3.5l4.1,1.3l2,6
			L9.4,24.1z M1.1,14.6c0-0.3,0.1-0.5,0.1-0.8c0-0.1,0-0.2,0-0.3c0.1-0.4,0.1-0.7,0.2-1.1c0-0.1,0-0.1,0.1-0.2
			c0.1-0.3,0.2-0.6,0.3-0.9c0-0.1,0.1-0.2,0.1-0.4c0.1-0.2,0.2-0.5,0.3-0.7C2.3,10,2.4,9.9,2.4,9.8c0.1-0.2,0.2-0.4,0.3-0.6
			C2.8,9,2.9,8.9,2.9,8.7c0.1-0.2,0.3-0.4,0.4-0.6C3.4,8,3.5,7.9,3.5,7.8c0,0,0-0.1,0.1-0.1l1.6,4.8l-4.1,3c0-0.1,0-0.3,0-0.4
			C1.1,14.9,1.1,14.7,1.1,14.6z M12.9,20.2L11,14.4l5-3.6l5,3.6l-1.9,5.8H12.9z M12.1,1.6c0.1,0,0.2-0.1,0.3-0.1
			c0.3-0.1,0.6-0.1,0.9-0.2c0.1,0,0.2,0,0.3-0.1c0.3,0,0.6-0.1,0.9-0.1c0.1,0,0.2,0,0.3,0c0.8-0.1,1.6-0.1,2.4,0c0.1,0,0.2,0,0.3,0
			c0.3,0,0.6,0.1,0.9,0.1c0.1,0,0.2,0,0.3,0.1c0.3,0.1,0.6,0.1,0.9,0.2c0.1,0,0.2,0.1,0.3,0.1c0.1,0,0.1,0,0.1,0l-4.1,3l-4.1-3
			C12,1.6,12,1.6,12.1,1.6z M28.4,7.7C28.4,7.7,28.4,7.7,28.4,7.7c0.1,0.2,0.2,0.3,0.3,0.4c0.1,0.2,0.3,0.4,0.4,0.6
			c0.1,0.1,0.1,0.3,0.2,0.4c0.1,0.2,0.2,0.4,0.3,0.6c0.1,0.1,0.1,0.3,0.2,0.4c0.1,0.2,0.2,0.5,0.3,0.7c0,0.1,0.1,0.2,0.1,0.4
			c0.1,0.3,0.2,0.6,0.3,0.9c0,0.1,0,0.1,0.1,0.2c0.1,0.4,0.2,0.7,0.2,1.1c0,0.1,0,0.2,0,0.3c0,0.3,0.1,0.5,0.1,0.8
			c0,0.1,0,0.3,0,0.4s0,0.3,0,0.4l-4.1-3L28.4,7.7z M27.6,6.6l-1.8,5.6l-4.1,1.3l-5.1-3.7V5.5l4.8-3.5C23.8,3,26,4.6,27.6,6.6
			L27.6,6.6z M10.7,2.1l4.8,3.5v4.3l-5.1,3.7l-4.1-1.3L4.4,6.6C6,4.6,8.2,3,10.7,2.1z M12.1,30.4l-1.8-5.7l2.5-3.5h6.4l2.5,3.5
			l-1.8,5.7C17.3,31.1,14.7,31.1,12.1,30.4z"/>
	</g>
</g>
</svg>
