<svg width="20" height="22" viewBox="0 0 20 22" fill="none" xmlns="http://www.w3.org/2000/svg">
<path d="M0.833374 9.18318C0.833374 8.22963 1.28669 7.33287 2.05453 6.76746L10 0.916672L17.9456 6.76746C18.7134 7.33287 19.1667 8.22963 19.1667 9.18318V18.5833C19.1667 19.964 18.0474 21.0833 16.6667 21.0833H13.75C13.1978 21.0833 12.75 20.6356 12.75 20.0833V14.7083C12.75 14.4322 12.5262 14.2083 12.25 14.2083H7.75004C7.4739 14.2083 7.25004 14.4322 7.25004 14.7083V20.0833C7.25004 20.6356 6.80233 21.0833 6.25004 21.0833H3.33337C1.95266 21.0833 0.833374 19.964 0.833374 18.5833V9.18318Z" stroke="#5C5C69" stroke-width="1.5" stroke-linecap="round" stroke-linejoin="round"/>
</svg>
