<?xml version="1.0" encoding="utf-8"?>
<!-- Generator: Adobe Illustrator 24.0.1, SVG Export Plug-In . SVG Version: 6.00 Build 0)  -->
<svg version="1.1" id="Слой_1" xmlns="http://www.w3.org/2000/svg" xmlns:xlink="http://www.w3.org/1999/xlink" x="0px" y="0px"
	 viewBox="0 0 51 61" style="enable-background:new 0 0 51 61;" xml:space="preserve">
<style type="text/css">
	.st0{fill:#FFFFFF;}
	.st1{fill:none;stroke:#EAECF4;}
</style>
<g>
	<path class="st0" d="M25.4,60.8c-6,0-25.3-23.9-25.3-35.4c0-14,11.3-25.3,25.3-25.3s25.3,11.3,25.3,25.3
		C50.7,36.9,31.4,60.8,25.4,60.8z"/>
	<path class="st1" d="M25.4,60.3c-0.6,0-1.5-0.3-2.5-1c-1.1-0.7-2.3-1.6-3.6-2.8c-2.6-2.4-5.6-5.7-8.4-9.4
		c-2.8-3.7-5.4-7.7-7.3-11.6c-1.9-3.8-3.1-7.4-3.1-10.2c0-13.7,11.1-24.8,24.8-24.8s24.8,11.1,24.8,24.8c0,2.8-1.2,6.3-3.1,10.2
		c-1.9,3.8-4.5,7.9-7.3,11.6c-2.8,3.7-5.7,7-8.4,9.4c-1.3,1.2-2.5,2.2-3.6,2.8C26.9,60,26,60.3,25.4,60.3z"/>
</g>
</svg>
