<svg width="44" height="44" viewBox="0 0 44 44" fill="none" xmlns="http://www.w3.org/2000/svg">
<path d="M22 0C9.84974 0 0 9.84974 0 22C0 34.1503 9.84974 44 22 44C34.1503 44 44 34.1503 44 22C44 9.84974 34.1503 0 22 0Z" fill="#EAECF4"/>
<g clip-path="url(#clip0)">
<path d="M31.6598 9.24263L29.6904 11.212L32.7784 14.3L34.7478 12.3306C35.3359 11.7424 35.3359 10.7891 34.7478 10.2009L33.7895 9.24263C33.2013 8.6545 32.248 8.6545 31.6598 9.24263Z" fill="#DADADC"/>
<path d="M9.23358 31.669L11.203 29.6996L14.2909 32.7876L12.3215 34.757C11.7334 35.3451 10.78 35.3451 10.1919 34.757L9.23358 33.7987C8.64545 33.2106 8.64545 32.2572 9.23358 31.669Z" fill="#DADADC"/>
<path d="M26.8548 8.32741L26.4414 8.74076C26.0332 9.14874 26.0332 9.81028 26.4414 10.2185L28.9273 15.2319L33.7727 17.5496C34.1807 17.9576 34.8422 17.9576 35.2502 17.5496L35.6636 17.1362C36.4234 16.3764 36.4234 15.1449 35.6636 14.3851L29.6059 8.32741C28.8461 7.56762 27.6145 7.56762 26.8548 8.32741Z" fill="#DD406B"/>
<path d="M8.31789 26.8641L8.73124 26.4507C9.13922 26.0428 9.80076 26.0428 10.209 26.4507L15.2224 28.9367L17.5401 33.7821C17.948 34.19 17.948 34.8516 17.5401 35.2595L17.1267 35.6729C16.3669 36.4327 15.1354 36.4327 14.3756 35.6729L8.31789 29.6152C7.5581 28.8554 7.5581 27.6236 8.31789 26.8641Z" fill="#DD406B"/>
<path d="M29.1231 17.9555L17.9463 29.1323L15.2227 28.9364L14.8584 26.0443L26.0352 14.8675L28.9271 15.2316L29.1231 17.9555Z" fill="#E5E8EC"/>
<path d="M26.0352 14.8675L24.8193 16.0834L27.9073 19.1713L29.1231 17.9555L28.9271 15.2316L26.0352 14.8675Z" fill="#DADADC"/>
<path d="M22.6871 9.21547L22.2738 9.62882C21.8658 10.0368 21.8658 10.6983 22.2738 11.1063L32.8844 21.7169C33.2923 22.1249 33.9539 22.1249 34.3619 21.7169L34.7752 21.3036C35.535 20.5438 35.535 19.312 34.7752 18.5522L25.4385 9.21547C24.6787 8.45568 23.4469 8.45568 22.6871 9.21547Z" fill="#742CD9"/>
<path d="M19.1622 27.9166L16.0743 24.8287L14.8584 26.0446L15.2227 28.9367L17.9463 29.1325L19.1622 27.9166Z" fill="#DADADC"/>
<path d="M9.20631 22.6965L9.61966 22.2831C10.0276 21.8751 10.6892 21.8751 11.0972 22.2831L21.7078 32.8937C22.1157 33.3017 22.1157 33.9632 21.7078 34.3712L21.2944 34.7846C20.5346 35.5443 19.3029 35.5443 18.5431 34.7846L9.20631 25.4478C8.44653 24.688 8.44653 23.4562 9.20631 22.6965Z" fill="#742CD9"/>
<path d="M34.793 12.9045L35.0582 12.6393C35.8043 11.8932 35.8037 10.6475 35.0582 9.90183C35.0582 9.90183 34.101 8.94488 34.0997 8.94354C33.3533 8.19718 32.1079 8.19807 31.3622 8.94354L31.097 9.20874L29.9163 8.02777C28.9902 7.10192 27.4832 7.1017 26.5571 8.02799C26.2702 8.3149 25.9486 8.57942 25.8036 8.97084L25.7487 8.91601C24.8345 8.00181 23.3027 8.00315 22.3898 8.91601L21.9764 9.32936C21.4082 9.89735 21.4091 10.8476 21.9764 11.4149L25.4336 14.8721L14.8647 25.4411L11.4073 21.9839C10.8325 21.4087 9.89686 21.4087 9.32193 21.9839L8.90857 22.3972C7.98251 23.3233 7.98251 24.8301 8.90857 25.7564L8.96318 25.811C8.76669 25.8837 8.58653 25.9986 8.4339 26.1512L8.02055 26.5645C7.10501 27.4801 7.1059 29.0091 8.02055 29.9237L9.2013 31.1045L8.9361 31.3696C8.18146 32.1245 8.18146 33.3525 8.9361 34.1073L9.89462 35.0656C10.6405 35.8115 11.8868 35.8109 12.6321 35.0656L12.8973 34.8004L14.078 35.9814C14.9922 36.8954 16.5237 36.8947 17.4372 35.9814L17.8506 35.5681C18.0059 35.4127 18.1187 35.2312 18.1901 35.0379L18.2456 35.0932C19.1602 36.008 20.691 36.0069 21.6047 35.0932L22.0181 34.6798C22.5867 34.1111 22.5861 33.1625 22.0181 32.5945L18.5607 29.1371L29.1294 18.5681L32.5868 22.0253C33.1546 22.5933 34.1051 22.5926 34.6724 22.0253L35.0857 21.6119C36.0118 20.6859 36.0118 19.1791 35.0857 18.253L35.0302 18.1975C35.2236 18.1261 35.4051 18.0133 35.5604 17.8582C36.608 16.8106 37.1755 15.2872 35.9737 14.0855L34.793 12.9045ZM12.2892 34.1926L12.024 34.4578C11.6091 34.8725 10.9169 34.8723 10.5024 34.4578L9.54393 33.4993C9.12454 33.0799 9.12454 32.3973 9.54393 31.9777L9.80913 31.7125L12.2892 34.1926ZM21.5882 33.6371C21.5882 33.7951 21.5286 33.9531 21.41 34.072L20.9967 34.4853C20.4126 35.0694 19.4366 35.0685 18.8534 34.4853L16.4693 32.1012C16.3014 31.9334 16.0293 31.9334 15.8615 32.1012C15.6936 32.2691 15.6936 32.5412 15.8615 32.7091L17.2427 34.0903C17.4824 34.33 17.4824 34.7203 17.2427 34.96L16.8294 35.3734C16.2383 35.9642 15.2769 35.9642 14.6861 35.3734C14.6861 35.3734 8.6304 29.3177 8.62838 29.3157C8.04405 28.7313 8.04472 27.7562 8.62838 27.1724L9.04173 26.759C9.27896 26.522 9.67463 26.5222 9.9114 26.759L15.9367 32.7843C16.1045 32.9524 16.3767 32.9524 16.5445 32.7843C16.7072 32.6218 16.7072 32.3392 16.5445 32.1765L9.51663 25.1481C8.92558 24.5573 8.92558 23.5959 9.51663 23.0048L9.92998 22.5915C10.1697 22.3518 10.5597 22.3518 10.7996 22.5915C10.7996 22.5915 21.4 33.1918 21.41 33.2021C21.5289 33.3209 21.5882 33.4791 21.5882 33.6371ZM17.9526 28.529L15.4725 26.0491L26.0415 15.4802L28.5216 17.9603L17.9526 28.529ZM31.9703 9.55137C32.385 9.13667 33.0774 9.1369 33.4919 9.55137L34.4501 10.5099C34.8646 10.9241 34.8644 11.6174 34.4501 12.0315L34.1852 12.2967L31.7051 9.81656L31.9703 9.55137ZM35.3659 16.8368L34.9526 17.2502C34.7129 17.4898 34.323 17.4898 34.0831 17.2504L29.75 12.9173C29.5821 12.7494 29.31 12.7494 29.1422 12.9173C28.9743 13.0851 28.9743 13.3572 29.1422 13.5251L34.4779 18.8608C35.0687 19.4516 35.0687 20.4133 34.4779 21.0041L34.0645 21.4175C33.8246 21.6571 33.4346 21.6571 33.1949 21.4175C33.1949 21.4175 22.5961 10.8187 22.5843 10.8069C22.3529 10.5755 22.3441 10.1773 22.5843 9.93719L22.9976 9.52384C23.2839 9.2376 23.6645 9.08005 24.0694 9.08005C24.474 9.08005 24.8547 9.2376 25.1409 9.52384L29.2413 13.6242C29.4051 13.788 29.6851 13.7882 29.8491 13.6242C30.0127 13.4606 30.0122 13.1795 29.8491 13.0161C29.8491 13.0161 26.7538 9.92085 26.7516 9.91861C26.5144 9.68139 26.5146 9.28639 26.7516 9.04917L27.1649 8.63582C27.756 8.04477 28.7174 8.04477 29.3082 8.63582L35.3659 14.6933C35.6522 14.9798 35.8097 15.3602 35.8097 15.7651C35.8097 16.1699 35.6522 16.5504 35.3659 16.8368Z" fill="black"/>
</g>
<defs>
<clipPath id="clip0">
<rect width="29.3333" height="29.3333" fill="white" transform="translate(7.33325 7.33333)"/>
</clipPath>
</defs>
</svg>
