<svg width="12" height="12" viewBox="0 0 12 12" fill="none" xmlns="http://www.w3.org/2000/svg">
<path d="M10.308 8.625L10.1156 9.45938C10.0763 9.62963 9.92476 9.75 9.75002 9.75H2.25002C2.07527 9.75 1.92377 9.62963 1.88439 9.45938L1.69202 8.625H10.308Z" fill="#F9D866"/>
<path d="M11.2406 4.58423L10.4813 7.87486H1.51876L0.759387 4.58423C0.726012 4.43911 0.781512 4.28761 0.901137 4.19873C1.02114 4.10986 1.18201 4.10048 1.31101 4.17436L3.63189 5.50073L5.68764 2.41711C5.75476 2.31661 5.86576 2.25436 5.98614 2.24986C6.10764 2.24461 6.22201 2.29936 6.29589 2.39461L8.70676 5.49436L10.6669 4.18786C10.7948 4.10311 10.9616 4.10386 11.088 4.19123C11.2148 4.27861 11.2748 4.43461 11.2406 4.58423Z" fill="#F9D866"/>
</svg>
