<svg width="28" height="28" viewBox="0 0 28 28" fill="none" xmlns="http://www.w3.org/2000/svg">
<g clip-path="url(#clip0)">
<path d="M6.5625 14C6.5625 12.6127 6.94471 11.3132 7.60873 10.2004V5.48047H2.88876C1.01544 7.91341 0 10.8785 0 14C0 17.1214 1.01544 20.0865 2.88876 22.5195H7.60873V17.7995C6.94471 16.6868 6.5625 15.3872 6.5625 14Z" fill="#FBBD00"/>
<path d="M14 21.4377L10.7188 24.7189L14 28.0002C17.1215 28.0002 20.0866 26.9847 22.5195 25.1114V20.3965H17.8046C16.6821 21.0629 15.3771 21.4377 14 21.4377Z" fill="#0F9D58"/>
<path d="M7.6084 17.7998L2.88843 22.5198C3.25932 23.0015 3.66319 23.4628 4.10019 23.8998C6.74444 26.544 10.2601 28.0003 13.9997 28.0003V21.4378C11.2859 21.4378 8.90733 19.9765 7.6084 17.7998Z" fill="#31AA52"/>
<path d="M28 13.9999C28 13.1481 27.9229 12.2948 27.7708 11.4636L27.6476 10.791H14V17.3535H20.6419C19.9969 18.6365 19.0052 19.6833 17.8045 20.3962L22.5194 25.1112C23.0011 24.7403 23.4624 24.3364 23.8995 23.8994C26.5437 21.2551 28 17.7394 28 13.9999Z" fill="#3C79E6"/>
<path d="M19.2591 8.74087L19.8391 9.32088L24.4795 4.68054L23.8995 4.10052C21.2553 1.45627 17.7396 0 14 0L10.7188 3.28125L14 6.5625C15.9866 6.5625 17.8543 7.33611 19.2591 8.74087Z" fill="#CF2D48"/>
<path d="M13.9997 6.5625V0C10.2602 0 6.7445 1.45627 4.10019 4.10047C3.66319 4.53748 3.25932 4.99877 2.88843 5.48051L7.6084 10.2005C8.90739 8.02375 11.2859 6.5625 13.9997 6.5625Z" fill="#EB4132"/>
</g>
<defs>
<clipPath id="clip0">
<rect width="28" height="28" fill="white"/>
</clipPath>
</defs>
</svg>
