<?xml version="1.0" encoding="utf-8"?>
<!-- Generator: Adobe Illustrator 24.0.1, SVG Export Plug-In . SVG Version: 6.00 Build 0)  -->
<svg version="1.1" id="Слой_1" xmlns="http://www.w3.org/2000/svg" xmlns:xlink="http://www.w3.org/1999/xlink" x="0px" y="0px"
	 viewBox="0 0 20 22" style="enable-background:new 0 0 20 22;" xml:space="preserve">
<style type="text/css">
	.st0{fill:#C2CDF7;stroke:#5C79DF;stroke-width:1.5;stroke-linecap:round;stroke-linejoin:round;}
</style>
<path class="st0" d="M0.8,9.2c0-1,0.5-1.9,1.2-2.4l8-5.9l7.9,5.9c0.8,0.6,1.2,1.5,1.2,2.4v9.4c0,1.4-1.1,2.5-2.5,2.5h-2.9
	c-0.6,0-1-0.4-1-1v-5.4c0-0.3-0.2-0.5-0.5-0.5H7.8c-0.3,0-0.5,0.2-0.5,0.5v5.4c0,0.6-0.4,1-1,1h-3c-1.4,0-2.5-1.1-2.5-2.5
	C0.8,18.6,0.8,9.2,0.8,9.2z"/>
</svg>
