<svg width="44" height="44" viewBox="0 0 44 44" fill="none" xmlns="http://www.w3.org/2000/svg">
<path d="M21.9934 43.301C33.7544 43.301 43.2886 33.7557 43.2886 21.981C43.2886 10.2062 33.7544 0.660919 21.9934 0.660919C10.2324 0.660919 0.698242 10.2062 0.698242 21.981C0.698242 33.7557 10.2324 43.301 21.9934 43.301Z" fill="#FFA14A"/>
<path d="M24.5935 43.1397C16.1458 44.1793 7.53696 40.0552 3.24972 32.102C-2.33627 21.7402 1.52268 8.80844 11.8723 3.21239C15.8956 1.0371 20.3063 0.292677 24.525 0.807288C21.965 1.12293 19.4187 1.91212 17.0129 3.21239C6.66314 8.80844 2.80436 21.7402 8.39036 32.102C11.8038 38.4358 17.9622 42.3403 24.5935 43.1397Z" fill="#FFB168"/>
<path d="M32.1053 40.7367C28.0819 42.912 23.6713 43.6566 19.4525 43.1418C22.0125 42.8261 24.5588 42.0369 26.9646 40.7367C37.3144 35.144 41.1732 22.2089 35.5872 11.847C32.1737 5.51328 26.0155 1.60875 19.384 0.80934C27.8318 -0.230281 36.4406 3.89384 40.7278 11.847C46.314 22.2089 42.455 35.144 32.1053 40.7367Z" fill="#F39034"/>
<path d="M1.06044 15.2246C0.870505 15.5815 -2.01799 23.8216 2.63011 32.4415C6.54751 39.7063 14.0913 44 22.0254 44C38.7256 44 49.1895 26.0596 41.3467 11.5152C32.1595 -5.52234 6.96541 -3.12852 1.06044 15.2246ZM2.27101 16.039C6.32025 13.9479 12.341 12.5807 18.4402 13.2791C17.9834 15.3984 16.5712 17.8112 14.2154 20.4876C9.1503 26.242 6.64978 34.4162 12.4041 40.2164C3.94225 35.7754 -0.656037 25.7909 2.27101 16.039ZM15.272 21.4198C17.8163 18.5292 19.3414 15.8686 19.8345 13.4712C21.9721 13.8239 24.0561 14.4203 26.0841 15.2581C24.8616 21.2126 21.8374 29.6818 14.7689 40.4136C8.08338 35.2849 10.0408 27.3629 15.272 21.4198ZM21.8034 42.588C29.8061 41.422 35.4597 36.2678 34.0738 28.6878C33.4012 25.0089 33.1856 21.9526 33.4241 19.5341C36.3276 21.7547 39.0893 24.547 41.7007 27.9027C39.0212 36.8388 30.8137 42.6844 21.8034 42.588ZM42.1359 26.1832C39.4822 22.9055 36.646 20.1647 33.6577 17.9794C34.4414 14.24 36.6261 12.405 40.4763 12.9051C42.5642 17.1643 43.0458 21.8299 42.1359 26.1832ZM39.6741 11.4221C35.9966 11.2716 33.4389 13.1737 32.4313 17.1165C30.7988 16.0208 29.234 15.156 27.6748 14.4423C28.3685 10.5705 28.6142 5.84722 27.5415 2.13056C32.7181 3.58487 36.9819 6.89072 39.6741 11.4221ZM32.1384 18.596C31.7423 21.3055 31.924 24.7606 32.6885 28.9416C34.117 36.7547 27.0043 42.0321 16.2065 41.3961C16.1109 41.3378 16.0178 41.2784 15.9245 41.219C22.9922 30.4953 26.103 21.947 27.4005 15.842C29.0172 16.6033 30.5971 17.5211 32.1384 18.596ZM25.9255 1.7446C27.1687 4.92797 27.0134 9.95794 26.345 13.8722C24.2798 13.0393 22.1629 12.4411 20.0051 12.0828C20.1607 7.88293 16.8277 5.2422 13.0508 3.40863C16.99 1.50316 21.4427 0.86201 25.9255 1.7446ZM11.4998 4.23976C15.0135 5.85515 18.6481 8.00224 18.6033 11.8847C13.0638 11.2337 7.47783 12.1875 2.93201 14.1649C4.62613 10.0015 7.60528 6.54282 11.4998 4.23976Z" fill="#2F2E49"/>
<path d="M6.14475 28.0368C5.97091 27.6889 5.5481 27.5478 5.20043 27.7217C4.85276 27.8957 4.712 28.319 4.88566 28.6671C5.20852 29.3135 5.58716 29.9017 6.01067 30.4152C6.25806 30.715 6.70162 30.7577 7.00144 30.5098C7.30108 30.262 7.34331 29.8179 7.09592 29.5179C6.74016 29.0865 6.42011 28.5882 6.14475 28.0368Z" fill="#2F2E49"/>
<path d="M5.30805 25.6991C4.97351 24.3483 4.80386 22.8185 4.80386 21.1524C4.80386 19.5828 4.961 18.4618 4.9647 18.4362C5.02055 18.051 4.75365 17.6934 4.36838 17.6375C3.98363 17.5813 3.62583 17.8487 3.56999 18.2341C3.29252 20.1309 3.28195 23.3809 3.94029 26.0384C4.03384 26.4162 4.41594 26.6467 4.79364 26.553C5.17134 26.4592 5.40177 26.077 5.30805 25.6991Z" fill="#2F2E49"/>
</svg>
