<svg width="32" height="32" viewBox="0 0 32 32" fill="none" xmlns="http://www.w3.org/2000/svg">
<path d="M26.5381 2.08289L24.3896 4.23132L27.7583 7.59998L29.9067 5.45154C30.5483 4.80994 30.5483 3.7699 29.9067 3.1283L28.8613 2.08289C28.2197 1.44128 27.1797 1.44128 26.5381 2.08289Z" fill="#DADADC"/>
<path d="M2.07324 26.5482L4.22168 24.3997L7.59033 27.7684L5.4419 29.9168C4.80029 30.5584 3.76025 30.5584 3.11865 29.9168L2.07324 28.8714C1.43164 28.2298 1.43164 27.1898 2.07324 26.5482Z" fill="#DADADC"/>
<path d="M21.296 1.0845L20.8451 1.53543C20.3998 1.9805 20.3998 2.70218 20.8451 3.14749L23.557 8.61673L28.8429 11.1451C29.288 11.5901 30.0096 11.5901 30.4547 11.1451L30.9056 10.6941C31.7345 9.86527 31.7345 8.52176 30.9056 7.6929L24.2972 1.0845C23.4684 0.255646 22.1249 0.255646 21.296 1.0845Z" fill="#DD406B"/>
<path d="M1.07416 21.3062L1.52509 20.8553C1.97015 20.4102 2.69183 20.4102 3.13715 20.8553L8.60638 23.5672L11.1347 28.8531C11.5798 29.2982 11.5798 30.0199 11.1347 30.4649L10.6838 30.9158C9.85492 31.7447 8.51141 31.7447 7.68255 30.9158L1.07416 24.3074C0.2453 23.4786 0.2453 22.1348 1.07416 21.3062Z" fill="#DD406B"/>
<path d="M23.7707 11.5879L11.5779 23.7808L8.60669 23.5671L8.20923 20.4121L20.4021 8.21924L23.5569 8.61646L23.7707 11.5879Z" fill="#E5E8EC"/>
<path d="M20.402 8.21924L19.0756 9.54565L22.4442 12.9143L23.7706 11.5879L23.5568 8.61646L20.402 8.21924Z" fill="#DADADC"/>
<path d="M16.7498 2.05328L16.2989 2.50421C15.8538 2.94928 15.8538 3.67096 16.2989 4.11603L27.8741 15.6912C28.3192 16.1363 29.0408 16.1363 29.4859 15.6912L29.9368 15.2403C30.7657 14.4114 30.7657 13.0677 29.9368 12.2388L19.7513 2.05328C18.9224 1.22443 17.5787 1.22443 16.7498 2.05328Z" fill="#742CD9"/>
<path d="M12.9043 22.4545L9.53564 19.0858L8.20923 20.4122L8.60669 23.5673L11.5779 23.7809L12.9043 22.4545Z" fill="#DADADC"/>
<path d="M2.04315 16.7599L2.49408 16.309C2.93915 15.8639 3.66083 15.8639 4.1059 16.309L15.6811 27.8842C16.1262 28.3292 16.1262 29.0509 15.6811 29.496L15.2302 29.9469C14.4013 30.7758 13.0576 30.7758 12.2287 29.9469L2.04315 19.7614C1.21429 18.9325 1.21429 17.5887 2.04315 16.7599Z" fill="#742CD9"/>
<path d="M29.957 6.07764L30.2463 5.78833C31.0602 4.97437 31.0595 3.61548 30.2463 2.802C30.2463 2.802 29.2021 1.75806 29.2006 1.75659C28.3864 0.942383 27.0278 0.94336 26.2143 1.75659L25.925 2.0459L24.6369 0.757569C23.6267 -0.252441 21.9826 -0.252686 20.9724 0.757813C20.6594 1.0708 20.3085 1.35938 20.1503 1.78638L20.0905 1.72656C19.0932 0.729248 17.4221 0.730713 16.4262 1.72656L15.9753 2.17749C15.3554 2.79712 15.3564 3.83374 15.9753 4.45264L19.7468 8.22412L8.21698 19.7539L4.44525 15.9824C3.8183 15.355 2.79755 15.355 2.17035 15.9824L1.71942 16.4334C0.709168 17.4436 0.709168 19.0874 1.71942 20.0979L1.77899 20.1575C1.56464 20.2368 1.3681 20.3621 1.2016 20.5286L0.750672 20.9795C-0.248108 21.9783 -0.247131 23.6462 0.750672 24.644L2.03876 25.9321L1.74945 26.2214C0.926209 27.0449 0.926209 28.3845 1.74945 29.208L2.79511 30.2534C3.60883 31.0671 4.96845 31.0664 5.78143 30.2534L6.07074 29.9641L7.35883 31.2524C8.35614 32.2495 10.0268 32.2488 11.0234 31.2524L11.4743 30.8015C11.6437 30.6321 11.7668 30.4341 11.8447 30.2232L11.9052 30.2835C12.903 31.2815 14.5729 31.2803 15.5698 30.2835L16.0207 29.8325C16.6411 29.2122 16.6403 28.1773 16.0207 27.5576L12.249 23.7859L23.7785 12.2561L27.5502 16.0276C28.1696 16.6472 29.2065 16.6465 29.8254 16.0276L30.2763 15.5767C31.2866 14.5664 31.2866 12.9226 30.2763 11.9124L30.2158 11.8518C30.4267 11.7739 30.6247 11.6509 30.7941 11.4817C31.937 10.3389 32.5561 8.677 31.2451 7.36597L29.957 6.07764ZM5.40741 29.301L5.1181 29.5903C4.66547 30.0427 3.91034 30.0425 3.45819 29.5903L2.41254 28.5447C1.95502 28.0872 1.95502 27.3425 2.41254 26.8848L2.70184 26.5955L5.40741 29.301ZM15.5517 28.6951C15.5517 28.8674 15.4868 29.0398 15.3574 29.1694L14.9064 29.6204C14.2692 30.2576 13.2045 30.2566 12.5683 29.6204L9.96747 27.0195C9.78436 26.8364 9.48749 26.8364 9.30438 27.0195C9.12128 27.2026 9.12128 27.4995 9.30438 27.6826L10.8112 29.1895C11.0727 29.4509 11.0727 29.8767 10.8112 30.1382L10.3603 30.5891C9.71552 31.2336 8.66669 31.2336 8.02216 30.5891C8.02216 30.5891 1.41595 23.9829 1.41376 23.9807C0.776306 23.3433 0.777039 22.2795 1.41376 21.6426L1.86469 21.1917C2.12347 20.9331 2.55512 20.9334 2.81342 21.1917L9.38647 27.7647C9.56958 27.9481 9.86645 27.9481 10.0496 27.7647C10.227 27.5875 10.227 27.2791 10.0496 27.1016L2.38275 19.4343C1.73798 18.7898 1.73798 17.741 2.38275 17.0962L2.83368 16.6453C3.09515 16.3838 3.52069 16.3838 3.78241 16.6453C3.78241 16.6453 15.3464 28.2092 15.3574 28.2205C15.487 28.3501 15.5517 28.5227 15.5517 28.6951ZM11.5856 23.1226L8.88007 20.4172L20.4099 8.88745L23.1154 11.593L11.5856 23.1226ZM26.8776 2.41968C27.33 1.96729 28.0854 1.96753 28.5375 2.41968L29.583 3.46533C30.0351 3.91724 30.0349 4.67358 29.583 5.12525L29.2939 5.41455L26.5883 2.70898L26.8776 2.41968ZM30.582 10.3674L30.1311 10.8184C29.8696 11.0798 29.4443 11.0798 29.1826 10.8186L24.4555 6.09155C24.2724 5.90845 23.9755 5.90845 23.7924 6.09155C23.6093 6.27466 23.6093 6.57153 23.7924 6.75464L29.6132 12.5754C30.2578 13.22 30.2578 14.269 29.6132 14.9136L29.1623 15.3645C28.9006 15.626 28.475 15.626 28.2136 15.3645C28.2136 15.3645 16.6513 3.80225 16.6384 3.78931C16.3859 3.53687 16.3764 3.10254 16.6384 2.84058L17.0893 2.38965C17.4016 2.07739 17.8168 1.90552 18.2585 1.90552C18.6999 1.90552 19.1152 2.07739 19.4274 2.38965L23.9005 6.86276C24.0793 7.04147 24.3847 7.04171 24.5636 6.86276C24.7421 6.68429 24.7416 6.37765 24.5636 6.19943C24.5636 6.19943 21.187 2.82275 21.1845 2.82031C20.9257 2.56152 20.926 2.13062 21.1845 1.87183L21.6354 1.4209C22.2802 0.776123 23.329 0.776123 23.9736 1.4209L30.582 8.02905C30.8942 8.34155 31.0661 8.75659 31.0661 9.19824C31.0661 9.63989 30.8942 10.0549 30.582 10.3674Z" fill="black"/>
</svg>
