<svg width="14" height="14" viewBox="0 0 14 14" fill="none" xmlns="http://www.w3.org/2000/svg">
<path d="M6.99975 -3.05176e-05C3.14037 -3.05176e-05 0 3.14009 0 6.99997C0 10.8599 3.14037 14 6.99975 14C10.8599 14 13.9997 10.8599 13.9997 6.99997C13.9997 3.14009 10.8599 -3.05176e-05 6.99975 -3.05176e-05ZM6.99975 13.0667C3.65467 13.0667 0.933283 10.3453 0.933283 6.99997C0.933283 3.65464 3.65492 0.933253 6.99975 0.933253C10.3453 0.933253 13.0665 3.65464 13.0665 6.99997C13.0665 10.3453 10.3456 13.0667 6.99975 13.0667Z" fill="#5C5C69"/>
<path d="M10.4641 6.4925H7.46403V2.52573C7.46403 2.26795 7.25504 2.05896 6.99751 2.05896C6.74024 2.05896 6.53125 2.2682 6.53125 2.52573V7.42553H10.4641C10.7216 7.42553 10.9306 7.21679 10.9303 6.95901C10.9303 6.70148 10.7211 6.4925 10.4641 6.4925Z" fill="#5C5C69"/>
</svg>
