<svg width="40" height="22" viewBox="0 0 40 22" fill="none" xmlns="http://www.w3.org/2000/svg">
<path d="M34.4256 13.5413C35.7525 14.76 37.1529 15.9067 38.3429 17.2483C38.8686 17.8446 39.3663 18.4598 39.7471 19.1517C40.2866 20.1353 39.7979 21.2176 38.8605 21.2764L33.0332 21.2739C31.5302 21.3912 30.3312 20.822 29.3231 19.8552C28.5163 19.082 27.7691 18.2592 26.9934 17.4599C26.6753 17.1333 26.3424 16.8259 25.9448 16.5829C25.1493 16.0972 24.4588 16.2459 24.0041 17.0264C23.5412 17.8204 23.4361 18.6994 23.3906 19.5842C23.3282 20.8752 22.9134 21.2146 21.5351 21.2737C18.5894 21.4044 15.7938 20.9852 13.1967 19.5871C10.907 18.3547 9.13152 16.6147 7.58606 14.6449C4.57724 10.8095 2.27295 6.59482 0.202016 2.26212C-0.264155 1.28596 0.076782 0.761978 1.22162 0.743383C3.12263 0.708617 5.02341 0.711116 6.92669 0.740884C7.69934 0.751541 8.21082 1.16844 8.50918 1.85515C9.53769 4.23443 10.7962 6.49809 12.3759 8.59631C12.7966 9.15491 13.2256 9.71359 13.8364 10.1067C14.5121 10.5421 15.0267 10.3978 15.3446 9.68955C15.5463 9.24047 15.6346 8.75676 15.6801 8.27585C15.8307 6.62113 15.8506 4.96921 15.5864 3.32031C15.4242 2.29123 14.8082 1.62502 13.7167 1.43032C13.1597 1.33102 13.2426 1.13602 13.5123 0.836949C13.9807 0.321123 14.4212 0 15.2994 0H21.8852C22.922 0.192497 23.1522 0.630707 23.2941 1.61216L23.2998 8.49451C23.2884 8.87443 23.5015 10.002 24.2289 10.2534C24.8111 10.4325 25.1948 9.99429 25.5442 9.647C27.121 8.07255 28.2464 6.21181 29.2518 4.28507C29.698 3.43783 30.0816 2.55803 30.4534 1.6789C30.7289 1.02658 31.1612 0.705604 31.9422 0.719789L38.2806 0.725081C38.4686 0.725081 38.6587 0.727654 38.8407 0.75698C39.9088 0.928236 40.2015 1.36049 39.8716 2.34172C39.3518 3.88119 38.3405 5.16414 37.3517 6.45296C36.2947 7.82897 35.1641 9.15793 34.1159 10.5421C33.1528 11.8063 33.2293 12.4434 34.4256 13.5413Z" fill="#436EAB"/>
</svg>
